<svg width="412" height="113" viewBox="0 0 412 113" fill="none" xmlns="http://www.w3.org/2000/svg">
<path d="M14.983 14.3699C15.2329 14.4475 15.2894 14.446 15.5265 14.6287C16.443 15.3341 17.6214 17.2674 17.7491 18.3933C17.7667 18.549 17.7764 18.7052 17.7901 18.8614C18.1534 19.0616 18.477 19.2213 18.8746 19.3545C19.2649 19.4857 28.0584 30.5658 29.3195 31.9535C35.6735 26.8086 42.694 22.0198 49.4546 17.3851C52.9821 20.7542 56.0438 24.8783 59.3191 28.5037L68.0408 22.3016C69.8749 23.8465 71.3511 25.868 73.0004 27.6046C75.8711 30.6273 80.1012 34.7454 83.4182 37.1944C85.6166 35.5103 88.4297 32.3054 91.181 31.7037C91.7853 31.949 92.0004 32.1197 92.2938 32.7039C93.1339 34.3769 93.2482 36.9796 93.4813 38.8529C95.0096 51.136 93.4288 63.4527 89.4082 75.1535C95.8229 74.2334 104.429 73.7157 103.933 65.2203C103.884 64.3783 103.659 63.1182 104.228 62.4154L104.687 62.539C105.06 63.0597 105.286 63.4857 105.446 64.1069C106.078 66.5554 105.588 69.5582 104.185 71.6858C100.947 76.5973 93.855 76.7014 88.5774 77.8488C87.3791 79.8172 86.3728 81.9073 85.2815 83.9343C81.5605 90.8468 78.4262 94.9774 69.7518 95.0715C67.5153 95.0955 65.2777 94.9809 63.1199 95.6567C63.0335 95.6837 62.948 95.7133 62.862 95.7413C56.9703 98.9648 58.1285 107.234 51.1635 110.756C45.8581 113.439 37.8127 112.097 32.3977 110.387C38.5272 110.754 46.8006 111.741 51.8857 107.672C52.3649 107.289 52.7592 106.991 52.8416 106.375C51.3241 105.995 48.9409 106.69 47.3092 106.765C45.7591 106.822 44.2094 106.812 42.66 106.733C29.5054 106.157 11.6553 103.468 0 97.3257C5.81033 95.084 10.7178 91.3434 15.3738 87.356C13.378 84.5766 11.0306 82.0259 8.97876 79.2816C7.12606 76.804 4.46676 72.2885 3.01329 69.5406C5.01882 67.6498 7.34765 66.0934 9.58909 64.4799C6.31092 60.7949 4.61423 56.3289 1.49882 52.6253C3.2111 51.0029 5.36225 49.6442 7.26627 48.2234L20.6846 38.3613C19.0745 36.5661 17.6963 34.5211 16.1539 32.6618C13.3032 29.2261 10.2533 25.9025 7.71853 22.233C7.12555 21.375 6.30773 20.2821 6.51532 19.2303C7.04586 18.7943 7.37581 18.4669 8.10612 18.4259L8.67033 19.0812C10.8235 18.1625 13.1396 15.8582 14.983 14.3699Z" fill="#FEFEFE"/>
<path d="M54.3924 63.0181C60.5039 70.1729 66.5048 78.805 72.0109 86.4764C67.1822 86.7237 61.0429 87.3685 57.0361 90.184C53.2394 92.8522 51.6731 97.0764 51.0034 101.405C52.754 98.4141 53.6249 95.106 56.0149 92.4502C59.93 88.0989 67.0813 87.788 72.6415 87.3825C73.5969 88.8769 74.4838 90.4027 75.3665 91.9381C71.0659 93.101 66.4198 92.1324 62.2849 93.5526C59.2655 94.5899 57.589 96.6935 56.2769 99.4138C55.5768 101.071 55.1254 102.807 53.2734 103.535C44.252 107.082 15.0755 100.598 5.87207 97.0118C13.5255 92.7321 20.6174 87.4541 27.7387 82.3914C36.7274 76.0693 45.612 69.6115 54.3924 63.0181Z" fill="#2B7FFF"/>
<path d="M89.9713 35.1759L90.3528 35.4032C90.7882 37.4832 90.8968 39.6654 91.0636 41.7795C91.1793 43.1886 91.257 44.5996 91.2968 46.0127C91.3363 47.4254 91.3378 48.8384 91.3014 50.2514C91.2647 51.6645 91.1901 53.0757 91.0775 54.4851C90.965 55.8945 90.8145 57.2999 90.6261 58.7013C90.438 60.103 90.2122 61.4989 89.9487 62.8889C89.6848 64.279 89.3839 65.6613 89.0458 67.036C88.7078 68.411 88.3329 69.7764 87.9211 71.1321C87.5097 72.4874 87.0619 73.8315 86.5777 75.1645C84.3591 75.543 82.2817 76.2283 80.2036 77.0588C82.1638 76.798 84.145 76.7499 86.1196 76.6678C83.9278 81.6264 81.3644 86.1835 77.5785 90.1684C75.6353 87.6949 73.9017 85.0056 72.1032 82.4269C67.1884 75.2907 61.864 68.4097 56.8442 61.341C62.3185 56.7925 68.1994 52.7019 73.7967 48.2965C79.256 43.9997 84.4003 39.3475 89.9713 35.1759Z" fill="#2B7FFF"/>
<path d="M18.2315 22.4583C19.569 23.2263 20.862 25.2472 21.795 26.4457C20.3261 27.7313 18.5303 28.6694 17.0014 29.915C15.7123 28.8031 14.5795 27.3133 13.4409 26.0452C15.0146 24.8204 16.6114 23.6247 18.2315 22.4583Z" fill="#2B7FFF"/>
<path d="M23.5157 28.3035C24.0258 28.715 24.4952 29.521 24.8942 30.0546C23.8966 30.4006 22.8645 30.6819 21.8536 30.9913C22.8187 32.4366 24.086 33.7477 25.2298 35.0643C24.5344 35.668 23.702 36.1421 22.9273 36.6462C21.502 36.421 19.3861 33.0628 18.458 31.8554C20.1882 30.748 21.8418 29.491 23.5157 28.3035Z" fill="#2B7FFF"/>
<path d="M51.0522 37.4272C52.2181 38.2922 53.334 40.6997 53.9352 42.0268L50.5312 44.4608L50.2543 44.4007C49.1981 43.0445 48.4795 41.3179 47.7053 39.791L51.0522 37.4272Z" fill="#2B7FFF"/>
<path d="M46.2205 40.7012C47.581 41.6219 48.6692 43.8741 49.5226 45.2438L46.3662 47.4741C45.1808 46.0693 44.1219 44.5575 43.0369 43.0787L46.2205 40.7012Z" fill="#2B7FFF"/>
<path d="M63.9014 28.0301C65.2181 29.0459 66.1873 30.7625 67.1041 32.1126C66.0123 33.0072 64.8356 33.8002 63.68 34.6147L63.5266 34.5882C62.4426 33.2946 61.5356 31.7677 60.5859 30.373L63.9014 28.0301Z" fill="#2B7FFF"/>
<path d="M41.8607 43.769L45.4999 48.1754L42.2035 50.5303C40.9434 49.1676 39.8522 47.5591 38.7197 46.0888L41.8607 43.769Z" fill="#2B7FFF"/>
<path d="M21.3245 58.9957C22.0616 59.3281 24.1972 62.4464 25.0306 63.3405C24.0056 64.0788 22.9862 64.8244 21.9725 65.5773L21.7847 65.6239C20.5574 65.2274 19.042 62.1146 18.4097 61.0437C19.3623 60.3394 20.353 59.6761 21.3245 58.9957Z" fill="#2B7FFF"/>
<path d="M29.5567 53.192C30.6505 53.4989 32.554 56.2693 33.4255 57.2025L30.406 59.4232L30.075 59.6209C28.7377 59.1979 27.5245 56.2873 26.8677 55.1224L29.5567 53.192Z" fill="#2B7FFF"/>
<path d="M55.3202 34.1977C56.3532 35.6175 57.306 37.0753 58.2511 38.5516L54.8934 41.1392C53.8212 39.7265 52.9714 38.1205 52.0793 36.5942L55.3202 34.1977Z" fill="#2B7FFF"/>
<path d="M14.6784 17.6909C15.4123 18.5665 16.3794 19.1332 17.3289 19.766C15.7817 21.3164 14.0396 22.6445 12.2552 23.9226C11.234 23.4946 10.485 22.184 9.86133 21.3279L14.6784 17.6909Z" fill="#2B7FFF"/>
<path d="M17.2487 61.9658C18.5337 63.1493 19.5965 64.9835 20.6154 66.4053L17.5389 68.7281C17.5038 68.7286 17.4663 68.7422 17.4335 68.7301C16.2715 68.2976 15.0392 65.3129 14.4841 64.2346L17.2487 61.9658Z" fill="#2B7FFF"/>
<path d="M25.5582 56.0776C26.8173 57.266 27.9451 59.1053 29.0677 60.4604L25.8769 62.7237C24.5082 61.9638 23.3742 59.4872 22.5537 58.1531L25.5582 56.0776Z" fill="#2B7FFF"/>
<path d="M37.7247 46.9519C38.9986 47.824 40.3076 49.9626 41.3469 51.1816L38.1107 53.5715L37.8487 53.6566C36.6962 52.6945 35.7089 50.4782 34.907 49.1666L37.7247 46.9519Z" fill="#2B7FFF"/>
<path d="M8.52475 68.2265C9.80532 68.9739 11.1111 71.2217 12.0268 72.4232L8.90489 74.8426C7.75552 73.3383 6.68852 71.7594 5.58765 70.2205L8.52475 68.2265Z" fill="#2B7FFF"/>
<path d="M7.9565 50.5228C8.89271 51.8925 10.1929 52.9908 11.3997 54.1342C10.1179 54.9693 8.87346 55.8674 7.61878 56.7409C6.48445 55.7467 5.47643 54.1958 4.51001 53.0204C5.63291 52.1578 6.80529 51.3493 7.9565 50.5228Z" fill="#2B7FFF"/>
<path d="M13.0582 65.2169C14.0158 65.6954 15.572 68.7197 16.2389 69.7314L13.2735 71.8305C12.1732 71.2763 10.8004 68.3532 10.1152 67.2168L13.0582 65.2169Z" fill="#2B7FFF"/>
<path d="M59.8106 31.0323L62.5305 35.3752L59.3216 37.7471C58.2463 36.847 57.3198 34.6337 56.5945 33.3857L59.8106 31.0323Z" fill="#2B7FFF"/>
<path d="M17.8293 43.2668C18.8209 42.5214 19.936 41.4506 21.1015 41.0251L24.0052 44.5805C22.6628 45.7294 21.131 46.5959 19.7878 47.7053C19.9998 47.082 20.1561 47.085 19.84 46.4598C19.2702 45.3329 18.4052 44.3917 17.8293 43.2668Z" fill="#2B7FFF"/>
<path d="M33.5276 50.1794C35.0378 51.0214 36.1538 52.9733 37.1251 54.345L34.2601 56.4405L34.0104 56.4586C32.8116 55.4313 31.8475 53.6051 30.9534 52.2934L33.5276 50.1794Z" fill="#2B7FFF"/>
<path d="M29.8162 34.4536C30.7381 34.8275 32.1032 37.2905 32.6998 38.1551L29.4224 40.5776C28.3255 39.4332 27.4479 38.1481 26.2249 37.1108C27.4046 36.2057 28.6194 35.3376 29.8162 34.4536Z" fill="#2B7FFF"/>
<path d="M13.3774 46.6455C14.0392 45.7159 15.6322 44.8007 16.5857 44.0974C17.5489 45.2979 18.4474 46.9018 19.788 47.7053L16.0777 50.4071C15.2069 49.1351 14.2831 47.8945 13.3774 46.6455Z" fill="#2B7FFF"/>
<path d="M34.017 31.1515C35.1937 32.2368 36.0569 33.7286 36.8794 35.0733C35.8216 35.7651 34.8184 36.5551 33.8018 37.3035C32.7136 36.8294 31.5478 34.6593 30.8513 33.659L34.017 31.1515Z" fill="#2B7FFF"/>
<path d="M42.3476 24.9909C43.4167 26.1053 44.2378 27.858 45.0119 29.1861C44.0283 29.9545 42.9895 30.6699 41.9796 31.4063C40.9856 30.0912 40.124 28.6685 39.2324 27.2858L42.3476 24.9909Z" fill="#2B7FFF"/>
<path d="M67.6565 25.1986C68.9706 25.934 70.2225 28.0967 71.0775 29.3007L68.4338 31.2871L68.0884 31.3262C66.9194 30.1507 66.049 28.4586 65.158 27.0634L67.6565 25.1986Z" fill="#2B7FFF"/>
<path d="M12.0679 47.4695C13.2176 48.1118 14.3618 50.1088 15.1466 51.1651L12.4249 53.4068C11.0281 52.4476 10.0552 51.0715 9.07983 49.7313C10.0885 48.9964 11.0736 48.223 12.0679 47.4695Z" fill="#2B7FFF"/>
<path d="M37.8606 28.4261C39.1155 29.114 40.2042 30.9137 41.0787 32.0216C40.0189 32.7329 39.0094 33.5229 37.9877 34.2853C36.8604 33.8503 35.693 31.564 35.0259 30.5623L37.8606 28.4261Z" fill="#2B7FFF"/>
<path d="M25.4313 37.716C26.3983 38.9586 27.3576 40.2068 28.3092 41.4606L25.2629 43.5347L24.8424 43.5667C23.7846 42.6521 23.0629 41.1983 22.3135 40.0344C23.3708 39.2875 24.3951 38.4905 25.4313 37.716Z" fill="#2B7FFF"/>
<path d="M46.1485 22.2466C47.2639 23.5542 48.3516 24.8578 49.361 26.245L46.637 28.0112C46.3271 28.1718 46.5299 28.1048 45.9961 28.0657C44.9672 26.9188 44.2218 25.5281 43.4209 24.225L46.1485 22.2466Z" fill="#2B7FFF"/>
<path d="M72.0609 32.4356C73.8579 34.9246 75.9626 37.1579 78.0751 39.3911L78.0046 39.8131L76.7847 40.6362C74.6289 39.0031 72.0841 36.1707 70.7288 33.8413C70.9676 33.194 71.5328 32.8801 72.0609 32.4356Z" fill="#2B7FFF"/>
<path d="M49.3574 19.9427C50.4651 21.1612 51.4503 22.4688 52.452 23.7699L50.1923 25.432C49.0269 24.2801 47.9326 23.0385 46.812 21.8446L49.3574 19.9427Z" fill="#2B7FFF"/>
<path d="M61.021 45.0971C62.2656 45.8591 65.0426 49.0085 65.5352 50.3356L64.4224 51.3633C64.3091 51.2887 64.1876 51.2242 64.0821 51.1391C62.8117 50.1138 60.1686 47.4295 60.1619 45.9056L61.021 45.0971Z" fill="#2B7FFF"/>
<path d="M65.8623 41.0907C65.9503 41.1402 66.0419 41.1838 66.1264 41.2393C67.4184 42.0884 69.9756 44.6305 70.2566 46.1964C70.3308 46.6109 69.7805 47.0795 69.5242 47.3999C69.3785 47.3203 69.2236 47.2542 69.0877 47.1601C67.9913 46.4012 65.4752 43.3129 65.2163 41.9983L65.8623 41.0907Z" fill="#2B7FFF"/>
<path d="M51.9382 50.32C53.1649 50.6214 53.903 51.6061 54.6921 52.5157C55.5759 53.5344 57.0007 54.9967 56.8756 56.3489L55.8971 56.4645C54.9942 56.008 54.1243 54.9582 53.536 54.1492C52.7139 53.0188 51.6968 51.7543 51.9382 50.32Z" fill="#2B7FFF"/>
<path d="M30.1414 66.8869C31.5858 67.9522 34.3211 71.1371 34.7329 72.8577L34.178 73.6787C32.7388 72.7896 29.9016 69.6713 29.5145 68.0293C29.4193 67.6263 29.9011 67.2068 30.1414 66.8869Z" fill="#2B7FFF"/>
<path d="M23.0284 73.15C24.1675 74.1377 26.9713 76.848 26.9574 78.3824C26.9538 78.7549 26.4164 79.1649 26.1647 79.4357C25.0055 78.1356 22.4956 75.9054 22.2634 74.2148C22.2079 73.8128 22.7566 73.4344 23.0284 73.15Z" fill="#2B7FFF"/>
<path d="M45.072 55.8743C45.1487 55.9084 45.229 55.9354 45.3016 55.9764C46.6271 56.7329 48.736 59.4582 49.1663 60.923L48.704 61.6559L48.0431 61.707C46.7079 60.8489 45.4602 59.0908 44.8811 57.644C44.5949 56.9281 44.8003 56.5607 45.072 55.8743Z" fill="#2B7FFF"/>
<path d="M15.1814 78.9141C15.4562 78.9036 15.7662 78.8936 16.0241 79.0067C17.3063 79.5689 19.2888 82.6177 19.793 83.9208L19.3167 84.6827L18.9464 84.6812C17.472 84.0644 15.7305 81.0067 14.9265 79.649L15.1814 78.9141Z" fill="#2B7FFF"/>
<path d="M37.3649 61.661C37.612 61.67 37.927 61.648 38.1715 61.7481C39.3076 62.2112 41.2034 64.8769 41.7083 65.9733C41.9811 66.5655 41.8221 66.7292 41.6157 67.3179C40.6063 67.1943 40.0498 66.3517 39.446 65.6193C38.6111 64.6066 37.2131 63.0121 37.3649 61.661Z" fill="#2B7FFF"/>
<path d="M107.193 71.3939C107.393 71.7844 107.518 72.0777 107.521 72.5268C107.529 73.6106 106.906 74.8281 106.365 75.7452C102.489 82.3078 94.3271 78.1592 89.6852 83.2499C89.0264 86.8333 88.2928 90.1294 85.8108 92.9934C82.4531 96.8672 77.3062 98.393 72.2407 98.5072C70.2625 98.5517 68.2376 98.369 66.2682 98.5788C64.6689 98.7485 63.8154 99.0709 62.8276 100.304C62.8333 100.191 62.8189 100.076 62.8457 99.9665C63.6301 96.734 72.7003 97.5926 75.5144 97.1675C78.0011 96.7921 80.442 96.0066 82.5813 94.701C86.6863 92.1944 87.5717 88.8018 88.595 84.516C90.3317 77.2416 98.5161 80.3984 103.52 77.2035C105.633 75.8544 106.684 73.7378 107.193 71.3939Z" fill="#FEFEFE"/>
<path d="M402.251 3C402.733 3.05907 403.2 3.10013 403.635 3.33542C404.5 3.80299 405.006 4.72662 405.209 5.63674C406.49 11.3698 399.424 20.9716 396.419 25.5532C398.973 30.7711 410.122 45.2168 408.84 50.7687C408.714 51.3133 408.585 51.3644 408.138 51.6573C407.222 51.6492 406.672 51.3764 405.948 50.8573C403.077 48.7992 400.506 45.757 397.932 43.323C394.848 40.4054 391.458 37.7347 388.09 35.1345C384.782 39.0603 382.095 43.699 379.112 47.8816C379.728 49.4946 380.687 50.9208 381.514 52.4337C382.117 53.5361 382.87 54.8477 382.466 56.0927L381.952 56.2965C379.752 56.1708 377.915 54.8592 376.085 53.7814C373.514 52.2134 365.194 48.4503 364.253 46.122C364.335 45.7175 364.28 45.5077 364.633 45.2319C366.301 43.9293 371.905 45.0261 374.006 45.2284C376.567 40.6337 379.08 36.0145 381.546 31.3708C374.275 27.6668 366 26.0868 358.594 22.7993C357.742 22.4213 356.997 22.0359 356.403 21.32C356.484 20.6692 356.694 20.2577 357.209 19.8332C361.095 16.6322 380.837 19.6615 386.197 20.2692C388.201 17.685 389.626 14.5507 391.423 11.8038C394.116 7.68575 397.121 4.09535 402.251 3Z" fill="#2B7FFF"/>
<path d="M375.834 55.8885L376.165 56.1498C376.909 57.6336 376.889 59.8143 376.864 61.4493C376.734 69.9397 373.098 76.7701 366.838 82.5928C348.272 99.86 305.401 107.103 280.437 108.755C266.366 109.687 252.38 109.402 238.297 109.024L237.569 108.951L237.336 109.368L237.142 108.767L237 108.873L237.364 108.927C237.742 108.614 237.535 108.685 237.98 108.66C243.87 108.334 249.794 108.354 255.692 108.144C264.661 107.824 273.606 107.182 282.526 106.217C307.421 103.455 348.38 96.0693 366.827 78.337C373.452 71.9692 375.742 64.7649 375.834 55.8885Z" fill="#2B7FFF"/>
<path d="M113.12 70V47.28H104.16V42H128.56V47.28H119.6V70H113.12ZM144.018 70.48C140.044 70.48 136.938 69.3733 134.698 67.16C132.458 64.9467 131.338 61.7867 131.338 57.68V42H137.818V57.44C137.818 60.1067 138.364 62.0267 139.458 63.2C140.551 64.3733 142.084 64.96 144.058 64.96C146.031 64.96 147.564 64.3733 148.658 63.2C149.751 62.0267 150.298 60.1067 150.298 57.44V42H156.698V57.68C156.698 61.7867 155.578 64.9467 153.338 67.16C151.098 69.3733 147.991 70.48 144.018 70.48ZM180.229 70V47.28H171.269V42H195.669V47.28H186.709V70H180.229ZM199.156 70V42H205.636V70H199.156ZM229.409 70V47.28H220.449V42H244.849V47.28H235.889V70H229.409ZM248.336 70V42H260.456C262.962 42 265.122 42.4133 266.936 43.24C268.749 44.04 270.149 45.2 271.136 46.72C272.122 48.24 272.616 50.0533 272.616 52.16C272.616 54.24 272.122 56.04 271.136 57.56C270.149 59.0533 268.749 60.2 266.936 61C265.122 61.8 262.962 62.2 260.456 62.2H251.936L254.816 59.36V70H248.336ZM266.136 70L259.136 59.84H266.056L273.136 70H266.136ZM254.816 60.08L251.936 57.04H260.096C262.096 57.04 263.589 56.6133 264.576 55.76C265.562 54.88 266.056 53.68 266.056 52.16C266.056 50.6133 265.562 49.4133 264.576 48.56C263.589 47.7067 262.096 47.28 260.096 47.28H251.936L254.816 44.2V60.08ZM274.07 70L286.55 42H292.95L305.47 70H298.67L288.43 45.28H290.99L280.71 70H274.07ZM280.31 64L282.03 59.08H296.43L298.19 64H280.31ZM308.375 70V42H321.095C324.135 42 326.815 42.5867 329.135 43.76C331.455 44.9067 333.268 46.52 334.575 48.6C335.881 50.68 336.535 53.1467 336.535 56C336.535 58.8267 335.881 61.2933 334.575 63.4C333.268 65.48 331.455 67.1067 329.135 68.28C326.815 69.4267 324.135 70 321.095 70H308.375ZM314.855 64.68H320.775C322.641 64.68 324.255 64.3333 325.615 63.64C327.001 62.92 328.068 61.9067 328.815 60.6C329.588 59.2933 329.975 57.76 329.975 56C329.975 54.2133 329.588 52.68 328.815 51.4C328.068 50.0933 327.001 49.0933 325.615 48.4C324.255 47.68 322.641 47.32 320.775 47.32H314.855V64.68ZM347.382 53.28H360.862V58.32H347.382V53.28ZM347.862 64.8H363.102V70H341.422V42H362.582V47.2H347.862V64.8Z" fill="white"/>
</svg>
